<?xml version="1.0" encoding="UTF-8"?>
<svg version="1.1" xmlns="http://www.w3.org/2000/svg" width="1024" height="1024">
<path d="M0 0 C0.33 0 0.66 0 1 0 C1.9775917 16.36560922 -4.19394501 29.22143813 -14.70043945 41.36376953 C-39.62204923 69.16559881 -79.14203124 71.63170656 -113.9140625 74.48828125 C-131.39689739 75.97378247 -146.39125461 80.02780962 -159 93 C-160.82155305 95.2691853 -162.40589102 97.55902062 -164 100 C-163.16339844 99.48050781 -162.32679688 98.96101563 -161.46484375 98.42578125 C-142.43700227 86.90063039 -123.32365337 85.00360269 -101.52420044 84.22314453 C-86.86721245 83.6801493 -72.55208672 82.87229069 -58.22314453 79.5 C-54.82692442 78.7361675 -51.39629928 78.1556962 -47.96655273 77.5625 C-47.31759033 77.376875 -46.66862793 77.19125 -46 77 C-45.67 76.34 -45.34 75.68 -45 75 C-43.28515625 74.32421875 -43.28515625 74.32421875 -41.0625 73.6875 C-36.42322069 72.2525947 -32.32360509 70.20909949 -28.06640625 67.890625 C-27.38449219 67.59671875 -26.70257813 67.3028125 -26 67 C-25.34 67.33 -24.68 67.66 -24 68 C-34.07238635 88.53404366 -45.60290791 103.33225399 -68 111 C-82.51621694 115.86707713 -97.51852767 116.32107646 -112.66870117 116.45629883 C-129.43294925 116.63342022 -144.84397111 118.57135748 -157.40625 130.64453125 C-159 132 -159 132 -161 132 C-161.309375 132.61875 -161.61875 133.2375 -161.9375 133.875 C-162.625 135.25 -163.3125 136.625 -164 138 C-163.13375 137.401875 -162.2675 136.80375 -161.375 136.1875 C-148.17678319 127.07444554 -132.24581756 127.75186292 -116.8828125 127.953125 C-104.08192515 128.1106999 -90.55041306 127.73145547 -78 125 C-77.67 124.34 -77.34 123.68 -77 123 C-75.109375 122.4375 -75.109375 122.4375 -72.75 122 C-69.29716157 121.30943231 -66.26045233 120.3425392 -63 119 C-62.01 119 -61.02 119 -60 119 C-63.26355166 130.74878596 -72.76363404 139.9388044 -83 146 C-96.93931231 153.73053565 -112.32202103 155.25597077 -128.0078125 154.9140625 C-140.28245691 154.65319587 -152.24207159 154.79758206 -162.171875 163.12109375 C-167.6233813 168.72403078 -171.62912428 175.24623435 -175.375 182.0625 C-181.84276619 193.28298427 -190.72971843 200.70474669 -203 205 C-210.42004653 206.4447498 -218.87699467 207.08191842 -226 204 C-227.73828125 202.421875 -227.73828125 202.421875 -229 201 C-228.18917969 200.85304688 -227.37835938 200.70609375 -226.54296875 200.5546875 C-215.90751469 198.40035804 -206.93273053 194.5152184 -199 187 C-198.67 186.34 -198.34 185.68 -198 185 C-197.34 185 -196.68 185 -196 185 C-195.6596875 184.01 -195.6596875 184.01 -195.3125 183 C-194.22429668 180.51267812 -193.14361522 178.70549656 -191.625 176.5 C-184.55952694 165.26233364 -183.5635891 152.66312788 -185.47265625 139.8203125 C-186.79834448 134.08889392 -188.93783019 130.11139196 -192.890625 125.75390625 C-194 124 -194 124 -193.671875 121.77734375 C-193.45015625 121.19082031 -193.2284375 120.60429687 -193 120 C-192.34 120 -191.68 120 -191 120 C-186.98560708 112.5698517 -185.00880571 104.47652191 -187.1171875 96.203125 C-188.49091765 92.77487809 -190.39833289 90.60166711 -193 88 C-184.07179082 68.24084855 -165.99888628 54.03652315 -146.26953125 46.17578125 C-134.13128424 41.810653 -121.72108884 40.1797916 -108.91870117 39.01269531 C-82.2678503 36.56702302 -54.40234882 32.60031633 -30 21 C-30 20.34 -30 19.68 -30 19 C-29.12085938 18.88914062 -28.24171875 18.77828125 -27.3359375 18.6640625 C-19.19922797 17.0443428 -12.44276692 11.97205472 -6.55859375 6.3203125 C-5 5 -5 5 -3 5 C-3 4.34 -3 3.68 -3 3 C-2.34 3 -1.68 3 -1 3 C-0.67 2.01 -0.34 1.02 0 0 Z " fill="#34C9CD" transform="translate(479,389)"/>
<path d="M0 0 C0 0.66 0 1.32 0 2 C-1.93343582 3.29991435 -3.92482019 4.51401315 -5.9375 5.6875 C-26.06678603 17.68659594 -42.50718463 36.54399793 -48.6796875 59.53125 C-49.72955082 64.42102437 -50.0128778 68.86237113 -49.77587891 73.86547852 C-49.40859335 82.21665926 -49.40859335 82.21665926 -51.48046875 84.9609375 C-53.375 86.25 -53.375 86.25 -55.2734375 87.140625 C-57.35966959 88.00031745 -57.35966959 88.00031745 -59 91 C-59.97272675 92.35335895 -60.9739266 93.68662604 -62 95 C-62.57814453 95.83337891 -62.57814453 95.83337891 -63.16796875 96.68359375 C-65 98 -65 98 -68.1171875 97.84765625 C-80.66038424 95.22688437 -91.66080369 90.73404448 -102 83 C-102.92039063 82.32710937 -102.92039063 82.32710937 -103.859375 81.640625 C-112.71149518 74.66860114 -118.14771554 64.7178519 -120.75 53.875 C-121.8263356 41.49714061 -118.64357855 31.4618026 -111.1328125 21.53125 C-95.17166721 2.5883523 -71.57240541 -5.30893459 -47.64282227 -7.62084961 C-31.78908236 -8.81097927 -14.65955917 -6.2428541 0 0 Z " fill="#0EABE9" transform="translate(312,389)"/>
<path d="M0 0 C3.28881889 1.47249391 5.75847592 3.36177374 8.5 5.6875 C31.54221827 24.20835277 57.60787678 26.49990985 86.046875 23.4375 C88.00367188 23.2209375 88.00367188 23.2209375 90 23 C90.32758301 23.54994629 90.65516602 24.09989258 90.99267578 24.66650391 C91.4307959 25.38757324 91.86891602 26.10864258 92.3203125 26.8515625 C92.96637451 27.92398193 92.96637451 27.92398193 93.62548828 29.01806641 C97.166098 34.12333633 102.23545654 35.53060657 108 37 C109.83425162 38.83425162 109.25959783 41.59280382 109.3125 44.0625 C109.15774837 59.27458503 104.68182203 73.14464456 94.125 84.4375 C86.05681087 91.94388099 76.90464235 95.49098738 65.89453125 95.25 C50.52931977 93.92291021 37.73352842 85.46860809 27.4375 74.375 C18.56941599 63.61420742 11.93419128 52.0148731 7 39 C6.60039062 37.95714844 6.20078125 36.91429687 5.7890625 35.83984375 C1.95577171 24.67142132 -0.17248574 11.83356727 0 0 Z " fill="#0EABE8" transform="translate(160,479)"/>
<path d="M0 0 C4.7228206 -1.1318002 9.42104304 -1.94290605 14 0 C18.62422995 4.29929106 21.57082317 10.10141975 24.60546875 15.56982422 C26.8682983 19.51313748 29.43056757 23.25179 32 27 C32.53367187 26.22398437 33.06734375 25.44796875 33.6171875 24.6484375 C34.7736011 22.97183785 35.931085 21.29585056 37.10864258 19.6340332 C39.32497698 16.49560208 41.40972939 13.34743983 43.33203125 10.01953125 C43.72600098 9.37902832 44.1199707 8.73852539 44.52587891 8.07861328 C45.28080059 6.84960459 45.99822901 5.59648138 46.66943359 4.31982422 C47.99583237 2.23802445 48.86563392 1.28611429 51 0 C54.3787384 -0.25444031 54.3787384 -0.25444031 58.20239258 -0.1628418 C59.47254715 -0.13933151 60.74270172 -0.11582123 62.05134583 -0.09159851 C63.0244017 -0.061371 63.99745758 -0.03114349 65 0 C65.02314591 7.65809552 65.0409266 15.31618742 65.05181217 22.97430992 C65.05703606 26.53008635 65.06412478 30.08583889 65.07543945 33.64160156 C65.08835914 37.72721591 65.09323229 41.81280506 65.09765625 45.8984375 C65.10281754 47.17866791 65.10797882 48.45889832 65.11329651 49.77792358 C65.11337204 50.95899689 65.11344757 52.14007019 65.11352539 53.35693359 C65.115746 54.40062103 65.11796661 55.44430847 65.12025452 56.5196228 C65 59 65 59 64 61 C59.71 61 55.42 61 51 61 C50.67 49.12 50.34 37.24 50 25 C47.40125 28.774375 47.40125 28.774375 44.75 32.625 C44.21213867 33.40568848 43.67427734 34.18637695 43.12011719 34.99072266 C42.68344727 35.6254248 42.24677734 36.26012695 41.796875 36.9140625 C41.32048584 37.60540283 40.84409668 38.29674316 40.35327148 39.0090332 C39.13025802 40.80836115 37.94737372 42.62802384 36.76953125 44.45703125 C35 47 35 47 32.9375 48.0625 C31 48 31 48 29.57275391 46.77197266 C27.82718616 44.80529605 26.37009016 42.76550818 24.8984375 40.5859375 C24.32609375 39.74289062 23.75375 38.89984375 23.1640625 38.03125 C22.57367187 37.1546875 21.98328125 36.278125 21.375 35.375 C20.19620311 33.63220977 19.01656106 31.8899908 17.8359375 30.1484375 C17.31563965 29.37677246 16.7953418 28.60510742 16.25927734 27.81005859 C15.12525468 26.06637963 15.12525468 26.06637963 14 25 C13.97494385 26.05501709 13.9498877 27.11003418 13.92407227 28.19702148 C13.83015891 32.09770628 13.72989966 35.99820625 13.62768555 39.89868164 C13.58427561 41.58939299 13.54260511 43.28014991 13.50268555 44.97094727 C13.44512906 47.39613606 13.38139351 49.82109415 13.31640625 52.24609375 C13.29133751 53.38672523 13.29133751 53.38672523 13.26576233 54.55039978 C13.11387171 59.88612829 13.11387171 59.88612829 12 61 C9.98035801 61.07244053 7.95832876 61.08377188 5.9375 61.0625 C4.28041016 61.04896484 4.28041016 61.04896484 2.58984375 61.03515625 C1.73519531 61.02355469 0.88054688 61.01195312 0 61 C-1.23792916 58.52414167 -1.12694185 56.8796558 -1.12939453 54.1105957 C-1.13254669 53.09226151 -1.13569885 52.07392731 -1.13894653 51.0247345 C-1.1369223 49.91957993 -1.13489807 48.81442535 -1.1328125 47.67578125 C-1.13376923 46.54101852 -1.13472595 45.4062558 -1.13571167 44.23710632 C-1.13639338 41.83035222 -1.13453974 39.42359629 -1.13037109 37.0168457 C-1.12504737 33.34517229 -1.13030363 29.67362259 -1.13671875 26.00195312 C-1.13605748 23.66406223 -1.13477532 21.32617141 -1.1328125 18.98828125 C-1.13483673 17.89324783 -1.13686096 16.79821442 -1.13894653 15.66999817 C-1.12269516 10.33858871 -0.938756 5.25171986 0 0 Z " fill="#004175" transform="translate(569,534)"/>
<path d="M0 0 C4.95014103 -0.49290167 9.21261668 -0.43672267 14 1 C17.49583087 4.63998884 19.66456568 8.61329665 21.96337891 13.07373047 C23.62253388 16.15680459 25.58803569 18.98394318 27.5625 21.875 C28.22378906 22.86242187 28.88507812 23.84984375 29.56640625 24.8671875 C30.03949219 25.57101562 30.51257813 26.27484375 31 27 C35.21231041 23.26474644 38.01696695 18.67853667 41.0625 14 C42.11487036 12.39516725 43.1682236 10.79097851 44.22265625 9.1875 C44.91500366 8.12595703 44.91500366 8.12595703 45.62133789 7.04296875 C46.07629639 6.36878906 46.53125488 5.69460938 47 5 C47.72461426 3.89253418 47.72461426 3.89253418 48.46386719 2.76269531 C50 1 50 1 53.35546875 0.609375 C54.62003906 0.65578125 55.88460937 0.7021875 57.1875 0.75 C59.09595703 0.80414062 59.09595703 0.80414062 61.04296875 0.859375 C62.01878906 0.90578125 62.99460937 0.9521875 64 1 C64.82666631 4.60410953 65.12201844 7.92198007 65.11352539 11.61645508 C65.11341209 13.26760063 65.11341209 13.26760063 65.11329651 14.95210266 C65.10813522 16.1293541 65.10297394 17.30660553 65.09765625 18.51953125 C65.0962413 19.73323898 65.09482635 20.94694672 65.09336853 22.19743347 C65.08777665 26.06914752 65.07522558 29.94080347 65.0625 33.8125 C65.05748395 36.43945229 65.05292123 39.06640549 65.04882812 41.69335938 C65.03780987 48.12892603 65.02107976 54.56445886 65 61 C61.88370851 62.03876383 59.6405571 62.13361625 56.375 62.125 C55.39273438 62.12757813 54.41046875 62.13015625 53.3984375 62.1328125 C51 62 51 62 50 61 C49.91148471 58.40640678 49.88474055 55.83960309 49.90234375 53.24609375 C49.9037587 52.47064713 49.90517365 51.6952005 49.90663147 50.89625549 C49.91224655 48.40996506 49.92480154 45.9237634 49.9375 43.4375 C49.94251306 41.75586067 49.9470763 40.07421994 49.95117188 38.39257812 C49.96222087 34.26168434 49.97949555 30.13085724 50 26 C49.34 26 48.68 26 48 26 C47.62488281 27.06927734 47.62488281 27.06927734 47.2421875 28.16015625 C45.87294212 31.2904751 44.17645336 33.70867997 42.125 36.4375 C39.85916935 39.45860753 37.70296943 42.42002197 35.8125 45.6875 C34 48 34 48 31.59057617 48.40429688 C29 48 29 48 27.27075195 46.25585938 C26.76503662 45.45986328 26.25932129 44.66386719 25.73828125 43.84375 C25.17689453 42.98652344 24.61550781 42.12929688 24.03710938 41.24609375 C23.18342773 39.88677734 23.18342773 39.88677734 22.3125 38.5 C21.16861676 36.71498353 20.01917154 34.93351484 18.86328125 33.15625 C18.36094971 32.36025391 17.85861816 31.56425781 17.34106445 30.74414062 C16.67723755 29.88079102 16.67723755 29.88079102 16 29 C15.34 29 14.68 29 14 29 C14.00523682 29.96413818 14.01047363 30.92827637 14.01586914 31.92163086 C14.03392118 35.48672564 14.04543274 39.05181636 14.05493164 42.61694336 C14.0599714 44.16219766 14.0668032 45.70744716 14.07543945 47.25268555 C14.08752076 49.46925029 14.09323173 51.68575218 14.09765625 53.90234375 C14.10281754 54.5971434 14.10797882 55.29194305 14.11329651 56.00779724 C14.11349277 57.6722933 14.06189129 59.33665499 14 61 C13 62 13 62 10.34765625 62.1328125 C9.26355469 62.13023437 8.17945313 62.12765625 7.0625 62.125 C5.44021484 62.12886719 5.44021484 62.12886719 3.78515625 62.1328125 C1 62 1 62 -1 61 C-1.02549283 53.91992975 -1.04292658 46.83987148 -1.05493164 39.75976562 C-1.05993994 37.35448769 -1.06674848 34.94921276 -1.07543945 32.54394531 C-1.08765912 29.07356011 -1.09326349 25.6032154 -1.09765625 22.1328125 C-1.10281754 21.06886261 -1.10797882 20.00491272 -1.11329651 18.90872192 C-1.11376772 12.54341767 -0.77265358 6.31910273 0 0 Z " fill="#2AB8CA" transform="translate(711,533)"/>
<path d="M0 0 C0 0.66 0 1.32 0 2 C0.66 2 1.32 2 2 2 C3.47265625 4.046875 3.47265625 4.046875 5.0625 6.75 C5.58972656 7.63171875 6.11695313 8.5134375 6.66015625 9.421875 C10.40211465 16.6221448 10.05907254 26.16399406 8.3515625 33.9609375 C5.61903135 41.5513018 0.89567281 46.69708017 -6.25 50.375 C-18.98105234 56.23128408 -34.64021505 54 -48 54 C-48 33.87 -48 13.74 -48 -7 C-30.80698235 -8.5630016 -14.86296581 -9.90864387 0 0 Z M-33 5 C-33 6.32 -33 7.64 -33 9 C-33.66 9 -34.32 9 -35 9 C-35.02886537 13.31248609 -35.04675255 17.62494762 -35.0625 21.9375 C-35.07087891 23.16919922 -35.07925781 24.40089844 -35.08789062 25.66992188 C-35.09111328 26.83974609 -35.09433594 28.00957031 -35.09765625 29.21484375 C-35.10289307 30.29886475 -35.10812988 31.38288574 -35.11352539 32.49975586 C-35.28426897 34.94049948 -35.28426897 34.94049948 -34 36 C-34.33 36 -34.66 36 -35 36 C-35 37.65 -35 39.3 -35 41 C-29.66046934 43.66976533 -21.07003619 42.68899646 -15.5 40.875 C-10.65621006 38.28011253 -8.46617666 35.5134457 -5.6875 30.75 C-4.0073331 24.0293324 -4.2129571 17.73624839 -7.76171875 11.6875 C-11.46695725 6.6380898 -15.77264106 5.70952156 -21.6875 4.75 C-27.48019484 3.71450241 -27.48019484 3.71450241 -33 5 Z M-35 5 C-34 7 -34 7 -34 7 Z " fill="#27A6B6" transform="translate(889,541)"/>
<path d="M0 0 C0.328125 2.2265625 0.328125 2.2265625 0.25 4.625 C0.23453125 5.42164063 0.2190625 6.21828125 0.203125 7.0390625 C0 9 0 9 -1 10 C-3.14558827 10.08775605 -5.29404421 10.10695219 -7.44140625 10.09765625 C-8.74658203 10.09443359 -10.05175781 10.09121094 -11.39648438 10.08789062 C-12.7851569 10.07953401 -14.17382877 10.07106905 -15.5625 10.0625 C-16.95507656 10.05748666 -18.34765481 10.05292347 -19.74023438 10.04882812 C-23.1601987 10.03699434 -26.58007844 10.0205088 -30 10 C-30.33 13.3 -30.66 16.6 -31 20 C-17.635 20.495 -17.635 20.495 -4 21 C-4 24.96 -4 28.92 -4 33 C-12.91 33 -21.82 33 -31 33 C-30.85835248 40.24069577 -30.85835248 40.24069577 -29 47 C-27.91203125 46.91621094 -26.8240625 46.83242188 -25.703125 46.74609375 C-16.9800059 46.12436386 -8.7233905 46.00619602 0 47 C0 50.63 0 54.26 0 58 C-3.37578657 58.67515731 -5.7354301 59.12383307 -9.02416992 59.09765625 C-10.15510323 59.09270142 -10.15510323 59.09270142 -11.30888367 59.08764648 C-12.50756828 59.07519897 -12.50756828 59.07519897 -13.73046875 59.0625 C-14.56210037 59.05871338 -15.39373199 59.05492676 -16.25056458 59.05102539 C-18.89626335 59.03884776 -21.54185112 59.02020865 -24.1875 59 C-27.68098647 58.97347439 -31.17441988 58.95346207 -34.66796875 58.9375 C-35.47316452 58.92920166 -36.27836029 58.92090332 -37.10795593 58.91235352 C-41.18473018 58.79070194 -41.18473018 58.79070194 -45 60 C-45.76280697 52.04501299 -46.10361857 44.19149025 -45.96289062 36.20703125 C-45.84798244 32.48024439 -45.84798244 32.48024439 -47 29 C-46.76161678 27.14188792 -46.51939725 25.28418722 -46.2578125 23.42919922 C-45.76864274 18.82007125 -45.93897294 14.19140266 -46 9.5625 C-46.02537282 7.58468844 -46.04645206 5.60681545 -46.0625 3.62890625 C-46.07410156 2.76338135 -46.08570313 1.89785645 -46.09765625 1.00610352 C-46 -1 -46 -1 -45 -2 C-41.93430324 -2.19773763 -38.88980418 -2.33318568 -35.8203125 -2.421875 C-34.89660858 -2.44977112 -33.97290466 -2.47766724 -33.02120972 -2.50640869 C-31.06255873 -2.56291042 -29.1038224 -2.61651505 -27.14501953 -2.66748047 C-24.14421971 -2.74947484 -21.14463694 -2.85300129 -18.14453125 -2.95703125 C-16.2448279 -3.00915036 -14.34508849 -3.05997433 -12.4453125 -3.109375 C-11.54523468 -3.14359558 -10.64515686 -3.17781616 -9.71780396 -3.21307373 C-8.46167801 -3.23860321 -8.46167801 -3.23860321 -7.18017578 -3.26464844 C-6.07550461 -3.29676422 -6.07550461 -3.29676422 -4.94851685 -3.32952881 C-2.41906283 -2.90175321 -1.55319556 -2.00139127 0 0 Z " fill="#2ABCCE" transform="translate(832,536)"/>
<path d="M0 0 C4.95 0 9.9 0 15 0 C15.64001953 1.64355469 15.64001953 1.64355469 16.29296875 3.3203125 C22.04594875 17.95552824 28.29251595 32.3635562 34.59301758 46.76879883 C35.05732178 47.83509521 35.52162598 48.9013916 36 50 C36.42350235 50.92937881 36.42350235 50.92937881 36.8555603 51.87753296 C39.03382589 56.73615809 39.03382589 56.73615809 38.6875 59.4375 C38.460625 59.953125 38.23375 60.46875 38 61 C36.06440687 61.13504138 34.126128 61.23201129 32.1875 61.3125 C31.10855469 61.37050781 30.02960937 61.42851563 28.91796875 61.48828125 C26 61 26 61 24.23828125 58.91796875 C23 56 23 56 21 49 C7.635 49.495 7.635 49.495 -6 50 C-7.98 54.95 -7.98 54.95 -10 60 C-14.47563453 61.93266037 -19.2737327 60.73338631 -24 60 C-24.33 60.66 -24.66 61.32 -25 62 C-24.45752123 55.81365558 -21.79119056 50.63656826 -19.25 45.0625 C-14.62322672 34.74590926 -10.16780082 24.37097987 -5.8125 13.9375 C-5.52097046 13.23980499 -5.22944092 12.54210999 -4.92907715 11.82327271 C-3.28303898 7.8834251 -1.64096562 3.94196987 0 0 Z M6 18 C4.82905995 20.7899439 3.66309073 23.58178597 2.5 26.375 C2.16613281 27.1690625 1.83226562 27.963125 1.48828125 28.78125 C1.01455078 29.92207031 1.01455078 29.92207031 0.53125 31.0859375 C0.23798828 31.7876709 -0.05527344 32.4894043 -0.35742188 33.21240234 C-1.11275781 34.99708561 -1.11275781 34.99708561 -1 37 C4.61 37 10.22 37 16 37 C13.36 30.73 10.72 24.46 8 18 C7.34 18 6.68 18 6 18 Z " fill="#013C68" transform="translate(665,534)"/>
<path d="M0 0 C-3.40888351 4.80739983 -6.9717487 9.11062153 -11.203125 13.2109375 C-15.83019054 17.81788537 -19.94374261 22.89212033 -24 28 C-23.20078125 28.92039062 -22.4015625 29.84078125 -21.578125 30.7890625 C-19.27798461 33.43859577 -16.98198337 36.09166097 -14.6875 38.74609375 C-12.30519565 41.50047576 -9.90921935 44.24179793 -7.5 46.97265625 C-6.41659708 48.21087662 -5.33326094 49.44915542 -4.25 50.6875 C-3.73727539 51.26258301 -3.22455078 51.83766602 -2.69628906 52.43017578 C1.61264759 57.38177637 1.61264759 57.38177637 2 61 C-10.80101427 63.21840427 -10.80101427 63.21840427 -15.93701172 59.65673828 C-20.22522078 55.5907522 -23.61151513 50.81655273 -27 46 C-28.26792703 44.35192665 -29.53794739 42.70545477 -30.8125 41.0625 C-31.534375 40.051875 -32.25625 39.04125 -33 38 C-35.6686551 39.37986565 -35.6686551 39.37986565 -38 42 C-38.63389665 45.09971709 -38.47234026 48.10237647 -38.3125 51.25 C-38.28994141 52.09046875 -38.26738281 52.9309375 -38.24414062 53.796875 C-38.18537714 55.86534964 -38.09569885 57.93290488 -38 60 C-42.67201205 61.20568053 -47.21496292 61.09382426 -52 61 C-53.19933467 40.60043228 -52.78436426 20.40058506 -52 0 C-47.71 0 -43.42 0 -39 0 C-37.12585472 3.74829057 -37.96944346 8.55383012 -38.0390625 12.703125 C-38.04679687 13.44820312 -38.05453125 14.19328125 -38.0625 14.9609375 C-38.07410156 15.63946777 -38.08570313 16.31799805 -38.09765625 17.01708984 C-37.99387677 19.12433209 -37.57497044 20.97458741 -37 23 C-32.34562433 17.79291722 -27.94876693 12.44986492 -23.69921875 6.90625 C-22.85810547 5.96265625 -22.85810547 5.96265625 -22 5 C-21.34 5 -20.68 5 -20 5 C-19.690625 4.360625 -19.38125 3.72125 -19.0625 3.0625 C-18 1 -18 1 -17 0 C-11.16083955 -1.24237456 -5.89018059 -0.77034555 0 0 Z " fill="#013E70" transform="translate(482,534)"/>
<path d="M0 0 C1.07507813 0.08765625 2.15015625 0.1753125 3.2578125 0.265625 C4.12148438 0.42546875 4.98515625 0.5853125 5.875 0.75 C7.08395702 3.16791404 6.96161844 4.59496725 6.89672852 7.29150391 C6.86658409 8.70274033 6.86658409 8.70274033 6.83583069 10.14248657 C6.79527809 11.66910416 6.79527809 11.66910416 6.75390625 13.2265625 C6.73029526 14.26694672 6.70668427 15.30733093 6.68235779 16.37924194 C6.60561424 19.71129644 6.52163584 23.04312475 6.4375 26.375 C6.38429003 28.63019716 6.33154956 30.88540545 6.27929688 33.140625 C6.15086957 38.67726862 6.01267001 44.21354752 5.875 49.75 C13.795 49.75 21.715 49.75 29.875 49.75 C30.37 48.76 30.37 48.76 30.875 47.75 C33.875 48.75 33.875 48.75 34.875 50.75 C35.10688406 58.05434783 35.10688406 58.05434783 33.875 61.75 C28.19669922 61.77464705 22.51842931 61.79283462 16.84008789 61.80493164 C14.90681415 61.80997256 12.97354424 61.81680519 11.0402832 61.82543945 C8.26773128 61.83751565 5.49522959 61.84323057 2.72265625 61.84765625 C1.41797142 61.85539818 1.41797142 61.85539818 0.08692932 61.86329651 C-1.98405814 61.86349185 -4.05494324 61.81208168 -6.125 61.75 C-7.125 60.75 -7.125 60.75 -7.24525452 58.42784119 C-7.24303391 57.39969803 -7.24081329 56.37155487 -7.23852539 55.31225586 C-7.23844986 54.15112778 -7.23837433 52.98999969 -7.23829651 51.79368591 C-7.23313522 50.530168 -7.22797394 49.26665009 -7.22265625 47.96484375 C-7.2212413 46.67888809 -7.21982635 45.39293243 -7.21836853 44.06800842 C-7.21454418 40.64356557 -7.20471462 37.21916491 -7.19366455 33.79473877 C-7.18344864 30.30261811 -7.17887053 26.81049066 -7.17382812 23.31835938 C-7.16309227 16.46222222 -7.14601684 9.60611313 -7.125 2.75 C-7.785 2.42 -8.445 2.09 -9.125 1.75 C-5.51994135 -0.65337243 -4.22253054 -0.38664135 0 0 Z " fill="#013662" transform="translate(498.125,533.25)"/>
<path d="M0 0 C4.95 0 9.9 0 15 0 C15 19.8 15 39.6 15 60 C12.03 60.495 12.03 60.495 9 61 C7.7625 61.226875 6.525 61.45375 5.25 61.6875 C3.64125 61.8421875 3.64125 61.8421875 2 62 C0 60 0 60 -0.24050903 57.48165894 C-0.23606781 56.4202066 -0.23162659 55.35875427 -0.22705078 54.26513672 C-0.22689972 53.06404266 -0.22674866 51.86294861 -0.22659302 50.62545776 C-0.21627045 49.32335358 -0.20594788 48.02124939 -0.1953125 46.6796875 C-0.19158276 45.33733327 -0.18873561 43.99497633 -0.18673706 42.65261841 C-0.17909744 39.117986 -0.1594463 35.58351772 -0.1373291 32.0489502 C-0.11687765 28.4428123 -0.10773685 24.83664791 -0.09765625 21.23046875 C-0.07620058 14.15357224 -0.04101586 7.07681409 0 0 Z " fill="#014075" transform="translate(540,534)"/>
<path d="M0 0 C4.7228206 -1.1318002 9.42104304 -1.94290605 14 0 C18.62422995 4.29929106 21.57082317 10.10141975 24.60546875 15.56982422 C26.8682983 19.51313748 29.43056757 23.25179 32 27 C32.53367187 26.22398437 33.06734375 25.44796875 33.6171875 24.6484375 C34.7736011 22.97183785 35.931085 21.29585056 37.10864258 19.6340332 C39.32497698 16.49560208 41.40972939 13.34743983 43.33203125 10.01953125 C43.72600098 9.37902832 44.1199707 8.73852539 44.52587891 8.07861328 C45.28080059 6.84960459 45.99822901 5.59648138 46.66943359 4.31982422 C47.99583237 2.23802445 48.86563392 1.28611429 51 0 C54.3787384 -0.25444031 54.3787384 -0.25444031 58.20239258 -0.1628418 C59.47254715 -0.13933151 60.74270172 -0.11582123 62.05134583 -0.09159851 C63.0244017 -0.061371 63.99745758 -0.03114349 65 0 C65.02314591 7.65809552 65.0409266 15.31618742 65.05181217 22.97430992 C65.05703606 26.53008635 65.06412478 30.08583889 65.07543945 33.64160156 C65.08835914 37.72721591 65.09323229 41.81280506 65.09765625 45.8984375 C65.10281754 47.17866791 65.10797882 48.45889832 65.11329651 49.77792358 C65.11337204 50.95899689 65.11344757 52.14007019 65.11352539 53.35693359 C65.115746 54.40062103 65.11796661 55.44430847 65.12025452 56.5196228 C65 59 65 59 64 61 C59.71 61 55.42 61 51 61 C50.67 49.12 50.34 37.24 50 25 C47.40125 28.774375 47.40125 28.774375 44.75 32.625 C44.21213867 33.40568848 43.67427734 34.18637695 43.12011719 34.99072266 C42.68344727 35.6254248 42.24677734 36.26012695 41.796875 36.9140625 C41.32048584 37.60540283 40.84409668 38.29674316 40.35327148 39.0090332 C39.13025802 40.80836115 37.94737372 42.62802384 36.76953125 44.45703125 C35 47 35 47 32.9375 48.0625 C31 48 31 48 29.57275391 46.77197266 C27.82718616 44.80529605 26.37009016 42.76550818 24.8984375 40.5859375 C24.32609375 39.74289062 23.75375 38.89984375 23.1640625 38.03125 C22.57367187 37.1546875 21.98328125 36.278125 21.375 35.375 C20.19620311 33.63220977 19.01656106 31.8899908 17.8359375 30.1484375 C17.31563965 29.37677246 16.7953418 28.60510742 16.25927734 27.81005859 C15.12525468 26.06637963 15.12525468 26.06637963 14 25 C13.97494385 26.05501709 13.9498877 27.11003418 13.92407227 28.19702148 C13.83015891 32.09770628 13.72989966 35.99820625 13.62768555 39.89868164 C13.58427561 41.58939299 13.54260511 43.28014991 13.50268555 44.97094727 C13.44512906 47.39613606 13.38139351 49.82109415 13.31640625 52.24609375 C13.29133751 53.38672523 13.29133751 53.38672523 13.26576233 54.55039978 C13.11387171 59.88612829 13.11387171 59.88612829 12 61 C9.98035801 61.07244053 7.95832876 61.08377188 5.9375 61.0625 C4.28041016 61.04896484 4.28041016 61.04896484 2.58984375 61.03515625 C1.73519531 61.02355469 0.88054688 61.01195312 0 61 C-1.23792916 58.52414167 -1.12694185 56.8796558 -1.12939453 54.1105957 C-1.13254669 53.09226151 -1.13569885 52.07392731 -1.13894653 51.0247345 C-1.1369223 49.91957993 -1.13489807 48.81442535 -1.1328125 47.67578125 C-1.13376923 46.54101852 -1.13472595 45.4062558 -1.13571167 44.23710632 C-1.13639338 41.83035222 -1.13453974 39.42359629 -1.13037109 37.0168457 C-1.12504737 33.34517229 -1.13030363 29.67362259 -1.13671875 26.00195312 C-1.13605748 23.66406223 -1.13477532 21.32617141 -1.1328125 18.98828125 C-1.13483673 17.89324783 -1.13686096 16.79821442 -1.13894653 15.66999817 C-1.12269516 10.33858871 -0.938756 5.25171986 0 0 Z M1 1 C1 20.14 1 39.28 1 59 C4.3 59 7.6 59 11 59 C11.33 46.46 11.66 33.92 12 21 C12.99 21 13.98 21 15 21 C15.2165625 21.65742187 15.433125 22.31484375 15.65625 22.9921875 C17.47043394 27.0530062 19.94378873 30.49874681 22.5 34.125 C23.48963069 35.54423781 24.4792158 36.96350741 25.46875 38.3828125 C25.90638672 39.00559082 26.34402344 39.62836914 26.79492188 40.27001953 C27.88351546 41.83277767 28.94355473 43.41533209 30 45 C32.44605807 45.64091616 32.44605807 45.64091616 35 45 C36.83582119 43.03167947 36.83582119 43.03167947 38.25 40.3125 C40.96797702 35.71882016 43.7794319 31.26364636 46.8125 26.875 C47.19760742 26.30692627 47.58271484 25.73885254 47.97949219 25.15356445 C50.76140559 21.1192972 50.76140559 21.1192972 53 20 C53 32.87 53 45.74 53 59 C56.3 59 59.6 59 63 59 C63 39.86 63 20.72 63 1 C52.72978828 -0.20544164 52.72978828 -0.20544164 49.0546875 3.5703125 C48.28901803 4.73032175 47.56356594 5.91762758 46.875 7.125 C46.47667969 7.74721436 46.07835937 8.36942871 45.66796875 9.01049805 C44.8356673 10.31884573 44.02038173 11.63815972 43.22167969 12.96728516 C41.60233619 15.66166046 39.90349945 18.30135835 38.19970703 20.94287109 C37.41225182 22.17004488 36.63421982 23.40332719 35.86669922 24.64306641 C33.21403361 28.8929832 33.21403361 28.8929832 31 30 C30.73050537 29.26716797 30.46101074 28.53433594 30.18334961 27.77929688 C29.03578804 25.08405427 27.73900356 22.92777611 26.06640625 20.53125 C25.2165918 19.30341797 25.2165918 19.30341797 24.34960938 18.05078125 C23.75986328 17.20902344 23.17011719 16.36726562 22.5625 15.5 C21.39584419 13.82381465 20.23044084 12.14675673 19.06640625 10.46875 C18.55021729 9.73076172 18.03402832 8.99277344 17.50219727 8.23242188 C15.91683349 5.87640589 14.46104019 3.43506698 13 1 C9.04 1 5.08 1 1 1 Z " fill="#042137" transform="translate(569,534)"/>
<path d="M0 0 C4.28503918 2.03753224 7.35129973 4.02694959 10 8 C11.23123967 12.47408219 11.63359055 16.59090844 9.5 20.8125 C7.05171111 24.43024646 4.09502214 26.53132117 0 28 C-5.52056866 28.90336578 -8.87587246 27.49975853 -13.33203125 24.4140625 C-16.89199936 21.39600991 -16.94678342 18.55877414 -17.375 14.0625 C-17.24485602 9.74334682 -15.84834139 7.2980795 -13 4 C-8.6454902 0.32285839 -5.67842805 -0.88113539 0 0 Z " fill="#0FAEEA" transform="translate(274,479)"/>
<path d="M0 0 C0.328125 2.2265625 0.328125 2.2265625 0.25 4.625 C0.23453125 5.42164063 0.2190625 6.21828125 0.203125 7.0390625 C0 9 0 9 -1 10 C-3.14558827 10.08775605 -5.29404421 10.10695219 -7.44140625 10.09765625 C-8.74658203 10.09443359 -10.05175781 10.09121094 -11.39648438 10.08789062 C-12.7851569 10.07953401 -14.17382877 10.07106905 -15.5625 10.0625 C-16.95507656 10.05748666 -18.34765481 10.05292347 -19.74023438 10.04882812 C-23.1601987 10.03699434 -26.58007844 10.0205088 -30 10 C-30.33 13.3 -30.66 16.6 -31 20 C-17.635 20.495 -17.635 20.495 -4 21 C-4 24.96 -4 28.92 -4 33 C-12.91 33 -21.82 33 -31 33 C-30.85835248 40.24069577 -30.85835248 40.24069577 -29 47 C-27.91203125 46.91621094 -26.8240625 46.83242188 -25.703125 46.74609375 C-16.9800059 46.12436386 -8.7233905 46.00619602 0 47 C0 50.63 0 54.26 0 58 C-3.37578657 58.67515731 -5.7354301 59.12383307 -9.02416992 59.09765625 C-10.15510323 59.09270142 -10.15510323 59.09270142 -11.30888367 59.08764648 C-12.50756828 59.07519897 -12.50756828 59.07519897 -13.73046875 59.0625 C-14.56210037 59.05871338 -15.39373199 59.05492676 -16.25056458 59.05102539 C-18.89626335 59.03884776 -21.54185112 59.02020865 -24.1875 59 C-27.68098647 58.97347439 -31.17441988 58.95346207 -34.66796875 58.9375 C-35.47316452 58.92920166 -36.27836029 58.92090332 -37.10795593 58.91235352 C-41.18473018 58.79070194 -41.18473018 58.79070194 -45 60 C-45.76280697 52.04501299 -46.10361857 44.19149025 -45.96289062 36.20703125 C-45.84798244 32.48024439 -45.84798244 32.48024439 -47 29 C-46.76161678 27.14188792 -46.51939725 25.28418722 -46.2578125 23.42919922 C-45.76864274 18.82007125 -45.93897294 14.19140266 -46 9.5625 C-46.02537282 7.58468844 -46.04645206 5.60681545 -46.0625 3.62890625 C-46.07410156 2.76338135 -46.08570313 1.89785645 -46.09765625 1.00610352 C-46 -1 -46 -1 -45 -2 C-41.93430324 -2.19773763 -38.88980418 -2.33318568 -35.8203125 -2.421875 C-34.89660858 -2.44977112 -33.97290466 -2.47766724 -33.02120972 -2.50640869 C-31.06255873 -2.56291042 -29.1038224 -2.61651505 -27.14501953 -2.66748047 C-24.14421971 -2.74947484 -21.14463694 -2.85300129 -18.14453125 -2.95703125 C-16.2448279 -3.00915036 -14.34508849 -3.05997433 -12.4453125 -3.109375 C-11.54523468 -3.14359558 -10.64515686 -3.17781616 -9.71780396 -3.21307373 C-8.46167801 -3.23860321 -8.46167801 -3.23860321 -7.18017578 -3.26464844 C-6.07550461 -3.29676422 -6.07550461 -3.29676422 -4.94851685 -3.32952881 C-2.41906283 -2.90175321 -1.55319556 -2.00139127 0 0 Z M-44 -1 C-44 18.14 -44 37.28 -44 57 C-30.14 57 -16.28 57 -2 57 C-2 54.03 -2 51.06 -2 48 C-12.23 48 -22.46 48 -33 48 C-32.67 42.72 -32.34 37.44 -32 32 C-23.42 31.67 -14.84 31.34 -6 31 C-6 28.03 -6 25.06 -6 22 C-14.91 22 -23.82 22 -33 22 C-33 17.38 -33 12.76 -33 8 C-22.77 8 -12.54 8 -2 8 C-2 5.03 -2 2.06 -2 -1 C-15.86 -1 -29.72 -1 -44 -1 Z " fill="#1C6269" transform="translate(832,536)"/>
<path d="M0 0 C1.26457031 0.04640625 2.52914062 0.0928125 3.83203125 0.140625 C5.74048828 0.19476562 5.74048828 0.19476562 7.6875 0.25 C8.66332031 0.29640625 9.63914062 0.3428125 10.64453125 0.390625 C11.47119756 3.99473453 11.76654969 7.31260507 11.75805664 11.00708008 C11.75798111 12.10784378 11.75790558 13.20860748 11.75782776 14.34272766 C11.75266647 15.5199791 11.74750519 16.69723053 11.7421875 17.91015625 C11.74077255 19.12386398 11.7393576 20.33757172 11.73789978 21.58805847 C11.7323079 25.45977252 11.71975683 29.33142847 11.70703125 33.203125 C11.7020152 35.83007729 11.69745248 38.45703049 11.69335938 41.08398438 C11.68234112 47.51955103 11.66561101 53.95508386 11.64453125 60.390625 C8.52823976 61.42938883 6.28508835 61.52424125 3.01953125 61.515625 C2.03726563 61.51820313 1.055 61.52078125 0.04296875 61.5234375 C-2.35546875 61.390625 -2.35546875 61.390625 -3.35546875 60.390625 C-3.44398404 57.79703178 -3.4707282 55.23022809 -3.453125 52.63671875 C-3.45171005 51.86127213 -3.4502951 51.0858255 -3.44883728 50.28688049 C-3.4432222 47.80059006 -3.43066721 45.3143884 -3.41796875 42.828125 C-3.41295569 41.14648567 -3.40839245 39.46484494 -3.40429688 37.78320312 C-3.39324788 33.65230934 -3.3759732 29.52148224 -3.35546875 25.390625 C-4.01546875 25.390625 -4.67546875 25.390625 -5.35546875 25.390625 C-5.60554687 26.10347656 -5.855625 26.81632813 -6.11328125 27.55078125 C-7.48252663 30.6811001 -9.17901539 33.09930497 -11.23046875 35.828125 C-13.4962994 38.84923253 -15.65249932 41.81064697 -17.54296875 45.078125 C-19.35546875 47.390625 -19.35546875 47.390625 -21.60546875 48.03515625 C-26.16803546 46.96580468 -27.7622708 43.19349065 -30.16796875 39.390625 C-30.67005859 38.6275 -31.17214844 37.864375 -31.68945312 37.078125 C-32.92732611 35.19184236 -34.14811913 33.29653298 -35.35546875 31.390625 C-35.02546875 30.730625 -34.69546875 30.070625 -34.35546875 29.390625 C-33.81277344 30.13828125 -33.27007813 30.8859375 -32.7109375 31.65625 C-31.99550781 32.64109375 -31.28007813 33.6259375 -30.54296875 34.640625 C-29.83527344 35.61515625 -29.12757813 36.5896875 -28.3984375 37.59375 C-27.72425781 38.51671875 -27.05007813 39.4396875 -26.35546875 40.390625 C-25.81921875 41.15375 -25.28296875 41.916875 -24.73046875 42.703125 C-23.06560343 44.7463688 -21.92232001 45.03657655 -19.35546875 45.390625 C-19.11570312 44.69710937 -18.8759375 44.00359375 -18.62890625 43.2890625 C-17.1346484 39.88802163 -15.14016805 37.01303649 -12.98046875 34.015625 C-9.84960972 29.59165304 -6.91316779 25.17241015 -4.35546875 20.390625 C-3.36546875 20.390625 -2.37546875 20.390625 -1.35546875 20.390625 C-1.35546875 33.260625 -1.35546875 46.130625 -1.35546875 59.390625 C2.27453125 59.390625 5.90453125 59.390625 9.64453125 59.390625 C9.64453125 40.250625 9.64453125 21.110625 9.64453125 1.390625 C5.68453125 1.390625 1.72453125 1.390625 -2.35546875 1.390625 C-3.01546875 2.710625 -3.67546875 4.030625 -4.35546875 5.390625 C-5.5646928 7.28541258 -6.79936595 9.16405892 -8.05078125 11.03125 C-8.76621094 12.10117187 -9.48164062 13.17109375 -10.21875 14.2734375 C-10.97260596 15.39586711 -11.72651286 16.51826251 -12.48046875 17.640625 C-13.24240037 18.77850333 -14.0041214 19.91652269 -14.765625 21.0546875 C-16.62683869 23.8347282 -18.4901925 26.61330916 -20.35546875 29.390625 C-21.01546875 29.060625 -21.67546875 28.730625 -22.35546875 28.390625 C-21.31847951 25.27965729 -20.61028624 24.58231579 -18.35546875 22.390625 C-17.38628497 21.04968323 -16.45082492 19.68398015 -15.54296875 18.30078125 C-15.02476562 17.51638672 -14.5065625 16.73199219 -13.97265625 15.92382812 C-13.43898438 15.10849609 -12.9053125 14.29316406 -12.35546875 13.453125 C-11.29401681 11.83915399 -10.23154979 10.22585001 -9.16796875 8.61328125 C-8.70003906 7.89922119 -8.23210938 7.18516113 -7.75 6.44946289 C-7.28980469 5.77004639 -6.82960938 5.09062988 -6.35546875 4.390625 C-5.87166748 3.65158936 -5.38786621 2.91255371 -4.8894043 2.15112305 C-3.35546875 0.390625 -3.35546875 0.390625 0 0 Z " fill="#19626A" transform="translate(764.35546875,533.609375)"/>
<path d="M0 0 C3 3 3 3 3.328125 5.2265625 C3.28945313 6.41378906 3.28945313 6.41378906 3.25 7.625 C3.23453125 8.42164063 3.2190625 9.21828125 3.203125 10.0390625 C3 12 3 12 2 13 C-0.14558827 13.08775605 -2.29404421 13.10695219 -4.44140625 13.09765625 C-5.74658203 13.09443359 -7.05175781 13.09121094 -8.39648438 13.08789062 C-9.7851569 13.07953401 -11.17382877 13.07106905 -12.5625 13.0625 C-13.95507656 13.05748666 -15.34765481 13.05292347 -16.74023438 13.04882812 C-20.1601987 13.03699434 -23.58007844 13.0205088 -27 13 C-27.33 16.3 -27.66 19.6 -28 23 C-14.635 23.495 -14.635 23.495 -1 24 C-1 27.96 -1 31.92 -1 36 C-9.91 36 -18.82 36 -28 36 C-27.85835248 43.24069577 -27.85835248 43.24069577 -26 50 C-25.01 50.33 -24.02 50.66 -23 51 C-25.31 51 -27.62 51 -30 51 C-30.02684679 48.35409986 -30.04676357 45.70846904 -30.0625 43.0625 C-30.07087891 42.30775391 -30.07925781 41.55300781 -30.08789062 40.77539062 C-30.09652441 38.85005687 -30.05224333 36.92464419 -30 35 C-29 34 -29 34 -26.49975586 33.88647461 C-25.41573486 33.89171143 -24.33171387 33.89694824 -23.21484375 33.90234375 C-21.46010742 33.90717773 -21.46010742 33.90717773 -19.66992188 33.91210938 C-17.82237305 33.92467773 -17.82237305 33.92467773 -15.9375 33.9375 C-14.08415039 33.94426758 -14.08415039 33.94426758 -12.19335938 33.95117188 C-9.12885883 33.96300392 -6.06445279 33.97948827 -3 34 C-3 31.03 -3 28.06 -3 25 C-11.91 25 -20.82 25 -30 25 C-30 20.38 -30 15.76 -30 11 C-19.77 11 -9.54 11 1 11 C0.67 7.37 0.34 3.74 0 0 Z " fill="#1D6E75" transform="translate(829,533)"/>
<path d="M0 0 C3.63 0 7.26 0 11 0 C11 19.8 11 39.6 11 60 C8.03 60.495 8.03 60.495 5 61 C3.7625 61.226875 2.525 61.45375 1.25 61.6875 C-0.35875 61.8421875 -0.35875 61.8421875 -2 62 C-4 60 -4 60 -4.24723816 57.78105164 C-4.24581314 56.85903458 -4.24438812 55.93701752 -4.24291992 54.98706055 C-4.24599655 53.94225021 -4.24907318 52.89743988 -4.25224304 51.82096863 C-4.24505753 50.68766617 -4.23787201 49.55436371 -4.23046875 48.38671875 C-4.23001053 47.22501663 -4.22955231 46.06331451 -4.2290802 44.8664093 C-4.22605421 42.40417462 -4.21815765 39.94194191 -4.20581055 37.47973633 C-4.18762619 33.71363522 -4.18530035 29.94778093 -4.18554688 26.18164062 C-4.18062892 23.79166454 -4.17479939 21.40169013 -4.16796875 19.01171875 C-4.16629951 17.3208741 -4.16629951 17.3208741 -4.16459656 15.59587097 C-4.15821671 14.54160416 -4.15183685 13.48733734 -4.14526367 12.40112305 C-4.14145187 11.47671921 -4.13764008 10.55231537 -4.13371277 9.59989929 C-3.99886968 6.97802224 -3.58051316 4.55706906 -3 2 C-2.67 2 -2.34 2 -2 2 C-2 20.81 -2 39.62 -2 59 C1.63 59 5.26 59 9 59 C9 39.86 9 20.72 9 1 C6.03 1 3.06 1 0 1 C0 0.67 0 0.34 0 0 Z " fill="#072235" transform="translate(544,534)"/>
<path d="M0 0 C5.18187758 4.10976498 6.27162111 9.82161937 7.6875 16 C9.32319892 31.70270966 4.85581275 45.92812561 -4.76953125 58.4609375 C-12.28640895 67.01780353 -21.54995647 71.8939652 -32 76 C-18.78900192 76.70437786 -8.57235077 75.89902907 2 67 C2.99 67.495 2.99 67.495 4 68 C-5.82841636 76.03412781 -14.13908245 79.14833815 -27 79 C-32.05699055 78.47661916 -35.54748786 77.89075671 -39 74 C-38.18917969 73.85304688 -37.37835938 73.70609375 -36.54296875 73.5546875 C-25.90751469 71.40035804 -16.93273053 67.5152184 -9 60 C-8.67 59.34 -8.34 58.68 -8 58 C-7.34 58 -6.68 58 -6 58 C-5.773125 57.34 -5.54625 56.68 -5.3125 56 C-4.22429668 53.51267812 -3.14361522 51.70549656 -1.625 49.5 C5.34617467 38.41231566 6.75751239 25.41444534 4.38671875 12.71484375 C3.23659627 8.33258221 1.71245692 4.19179673 0 0 Z " fill="#2CA0A8" transform="translate(289,516)"/>
<path d="M0 0 C29 0 29 0 37 2 C37 2.33 37 2.66 37 3 C25.45 2.67 13.9 2.34 2 2 C2 20.15 2 38.3 2 57 C10.91 57 19.82 57 29 57 C29 57.33 29 57.66 29 58 C19.43 58 9.86 58 0 58 C0 38.86 0 19.72 0 0 Z " fill="#2FC8DB" transform="translate(842,535)"/>
<path d="M0 0 C3.51884046 2.65745764 6.27738085 5.35073229 9 8.8125 C11.74323292 12.25080883 14.52145281 15.62066339 17.4375 18.9140625 C18.02660156 19.58074951 18.61570312 20.24743652 19.22265625 20.93432617 C20.3916617 22.25186596 21.5660113 23.56468674 22.74609375 24.87231445 C23.28363281 25.48034912 23.82117188 26.08838379 24.375 26.71484375 C24.85710937 27.25230225 25.33921875 27.78976074 25.8359375 28.34350586 C27.145351 30.20683862 27.58376657 31.77635757 28 34 C15.19898573 36.21840427 15.19898573 36.21840427 10.06298828 32.65673828 C5.77477922 28.5907522 2.38848487 23.81655273 -1 19 C-2.26792703 17.35192665 -3.53794739 15.70545477 -4.8125 14.0625 C-5.8953125 12.5465625 -5.8953125 12.5465625 -7 11 C-9.6686551 12.37986565 -9.6686551 12.37986565 -12 15 C-12.63389665 18.09971709 -12.47234026 21.10237647 -12.3125 24.25 C-12.28994141 25.09046875 -12.26738281 25.9309375 -12.24414062 26.796875 C-12.18537714 28.86534964 -12.09569885 30.93290488 -12 33 C-16.67201205 34.20568053 -21.21496292 34.09382426 -26 34 C-26.19629336 31.14619655 -26.38226546 28.29232606 -26.5625 25.4375 C-26.61857422 24.63763672 -26.67464844 23.83777344 -26.73242188 23.01367188 C-27.02968013 18.15845373 -26.86778632 13.78889489 -26 9 C-25.67 9 -25.34 9 -25 9 C-25 16.59 -25 24.18 -25 32 C-21.37 32 -17.74 32 -14 32 C-14.05800781 30.77023437 -14.11601562 29.54046875 -14.17578125 28.2734375 C-14.22270005 26.64066312 -14.26819794 25.00784748 -14.3125 23.375 C-14.3753418 22.16263672 -14.3753418 22.16263672 -14.43945312 20.92578125 C-14.52834262 16.55241787 -14.34351227 13.84971472 -11.48046875 10.4140625 C-10.66191406 9.61742187 -9.84335937 8.82078125 -9 8 C-4.76927294 9.5691429 -2.39844221 12.7400639 0.375 16.125 C0.86758301 16.70596436 1.36016602 17.28692871 1.86767578 17.88549805 C4.53640911 21.06581952 6.76483383 24.22907757 8.875 27.8125 C10.09622837 29.75754819 10.09622837 29.75754819 12 31 C16.41172586 31.65221428 20.57673686 31.47251476 25 31 C24.38253906 30.33355469 23.76507813 29.66710937 23.12890625 28.98046875 C17.91022487 23.30108186 12.89137213 17.52943005 8.05078125 11.51953125 C6.22643326 9.27818943 4.35127945 7.10226692 2.4375 4.9375 C0 2 0 2 0 0 Z " fill="#041F34" transform="translate(456,561)"/>
<path d="M0 0 C0.495 0.99 0.495 0.99 1 2 C-0.29289192 4.15380583 -1.63313812 6.18957082 -3.0625 8.25 C-10.95695208 20.10322196 -16.43045838 32.37853981 -15.77148438 46.85668945 C-15.42283107 55.23551767 -15.42283107 55.23551767 -17.48046875 57.9609375 C-19.375 59.25 -19.375 59.25 -21.2734375 60.140625 C-23.35966959 61.00031745 -23.35966959 61.00031745 -25 64 C-25.97272675 65.35335895 -26.9739266 66.68662604 -28 68 C-28.57814453 68.83337891 -28.57814453 68.83337891 -29.16796875 69.68359375 C-31 71 -31 71 -34.1171875 70.84765625 C-49.17640387 67.70118797 -64.25164865 61.47412427 -75 50 C-75 49.34 -75 48.68 -75 48 C-74.34 48 -73.68 48 -73 48 C-72.34 48.680625 -71.68 49.36125 -71 50.0625 C-59.95787579 61.39267963 -45.22608594 66.3620459 -30 69 C-29.90589844 68.42636719 -29.81179687 67.85273438 -29.71484375 67.26171875 C-28.83613307 64.48153579 -27.50981935 62.97034036 -25.5625 60.8125 C-24.94503906 60.11769531 -24.32757813 59.42289062 -23.69140625 58.70703125 C-22 57 -22 57 -20 56 C-19.61948942 53.09181202 -19.34494854 50.23351711 -19.125 47.3125 C-17.44899669 29.04577415 -11.26608987 14.52582146 0 0 Z " fill="#1391C2" transform="translate(278,416)"/>
<path d="M0 0 C3.28881889 1.47249391 5.75847592 3.36177374 8.5 5.6875 C19.75713445 14.73574906 33.43022563 21.82639694 47.98046875 23.5390625 C48.97691406 23.69117188 49.97335938 23.84328125 51 24 C51.495 24.99 51.495 24.99 52 26 C34.35301428 25.92522464 15.35584894 16.27910454 3 4 C3.65841166 24.77288781 9.24761656 44.58932274 21.24291992 61.71166992 C22.21305495 63.10693205 23.11411272 64.54978549 24 66 C23.67 66.66 23.34 67.32 23 68 C8.44961382 49.08449797 -0.94901065 24.12484977 0 0 Z " fill="#1387B7" transform="translate(160,479)"/>
<path d="M0 0 C3.96 0 7.92 0 12 0 C12 19.14 12 38.28 12 58 C8.37 58 4.74 58 1 58 C1 45.13 1 32.26 1 19 C1.33 19 1.66 19 2 19 C2 31.54 2 44.08 2 57 C4.64 57 7.28 57 10 57 C10 38.85 10 20.7 10 2 C1.34976415 2.01252632 1.34976415 2.01252632 -2.0625 6.0625 C-3.0215625 7.5165625 -3.0215625 7.5165625 -4 9 C-4 4.63993526 -3.05575189 3.1252008 0 0 Z " fill="#2FC7D9" transform="translate(762,535)"/>
<path d="M0 0 C0.33 0.66 0.66 1.32 1 2 C1.99 2 2.98 2 4 2 C5.54296875 4.01953125 5.54296875 4.01953125 7.1875 6.8125 C10.35392884 12.03575442 13.81367935 16.91486624 17.49609375 21.78515625 C19 24 19 24 19 26 C20.65 26 22.3 26 24 26 C24.26949463 25.27006836 24.53898926 24.54013672 24.81665039 23.78808594 C26.75388964 19.22376322 29.64158779 15.3262261 32.4375 11.25 C33.02337891 10.37472656 33.60925781 9.49945312 34.21289062 8.59765625 C35.06463867 7.35048828 35.06463867 7.35048828 35.93359375 6.078125 C36.44978271 5.31918945 36.96597168 4.56025391 37.49780273 3.77832031 C39 2 39 2 42 1 C41.67 14.2 41.34 27.4 41 41 C41.99 41.33 42.98 41.66 44 42 C42.68 42 41.36 42 40 42 C39.67 30.12 39.34 18.24 39 6 C36.40125 9.774375 36.40125 9.774375 33.75 13.625 C33.21213867 14.40568848 32.67427734 15.18637695 32.12011719 15.99072266 C31.68344727 16.6254248 31.24677734 17.26012695 30.796875 17.9140625 C30.32048584 18.60540283 29.84409668 19.29674316 29.35327148 20.0090332 C28.13025802 21.80836115 26.94737372 23.62802384 25.76953125 25.45703125 C24 28 24 28 21.9375 29.0625 C20 29 20 29 18.57275391 27.77197266 C16.82718616 25.80529605 15.37009016 23.76550818 13.8984375 21.5859375 C13.32609375 20.74289062 12.75375 19.89984375 12.1640625 19.03125 C11.57367187 18.1546875 10.98328125 17.278125 10.375 16.375 C9.19620311 14.63220977 8.01656106 12.8899908 6.8359375 11.1484375 C6.31563965 10.37677246 5.7953418 9.60510742 5.25927734 8.81005859 C4.12525468 7.06637963 4.12525468 7.06637963 3 6 C2.67 17.55 2.34 29.1 2 41 C1.67 41 1.34 41 1 41 C0.67 27.47 0.34 13.94 0 0 Z " fill="#052742" transform="translate(580,553)"/>
<path d="M0 0 C12.51397941 -0.27093866 12.51397941 -0.27093866 16.078125 2.77734375 C17.38472702 4.85363949 18.37404588 6.62719718 19 9 C18.67 9.66 18.34 10.32 18 11 C17.69449219 10.43410156 17.38898437 9.86820313 17.07421875 9.28515625 C15.49693427 6.60999866 15.49693427 6.60999866 12 3 C8.37 2.67 4.74 2.34 1 2 C1 21.14 1 40.28 1 60 C4.63 60 8.26 60 12 60 C12 47.46 12 34.92 12 22 C17 27 17 27 17 30 C16.01 29.34 15.02 28.68 14 28 C14.00523682 28.99443115 14.01047363 29.9888623 14.01586914 31.01342773 C14.03392041 34.69033921 14.04543246 38.36724675 14.05493164 42.04418945 C14.05997157 43.63794614 14.0668035 45.23169819 14.07543945 46.82543945 C14.08751999 49.11150253 14.09323155 51.39750467 14.09765625 53.68359375 C14.10281754 54.40026718 14.10797882 55.11694061 14.11329651 55.85533142 C14.11349263 57.57063672 14.06192007 59.28581266 14 61 C13 62 13 62 10.34765625 62.1328125 C9.26355469 62.13023437 8.17945313 62.12765625 7.0625 62.125 C5.44021484 62.12886719 5.44021484 62.12886719 3.78515625 62.1328125 C1 62 1 62 -1 61 C-1.02549283 53.91992975 -1.04292658 46.83987148 -1.05493164 39.75976562 C-1.05993994 37.35448769 -1.06674848 34.94921276 -1.07543945 32.54394531 C-1.08765912 29.07356011 -1.09326349 25.6032154 -1.09765625 22.1328125 C-1.10281754 21.06886261 -1.10797882 20.00491272 -1.11329651 18.90872192 C-1.11376772 12.54341767 -0.77265358 6.31910273 0 0 Z " fill="#195864" transform="translate(711,533)"/>
<path d="M0 0 C-3.08824429 2.05882953 -5.51567225 2.85195791 -9.0625 3.875 C-31.61122989 10.70946016 -47.1807784 23.57263983 -60 43 C-59.02992271 44.97948203 -58.04554936 46.9223666 -56.9296875 48.82421875 C-54.00179515 53.99682856 -53.50934937 58.1121925 -54 64 C-55.54604555 61.1878513 -56.30827557 58.78332884 -56.8125 55.625 C-57.77924766 50.86985907 -59.64327784 48.44505695 -63 45 C-53.99929727 25.08041199 -35.96697928 11.24362009 -16.21875 3.15625 C-10.69952776 1.17361677 -5.89907422 -0.28775972 0 0 Z " fill="#2EA9B1" transform="translate(349,432)"/>
<path d="M0 0 C4.62 0 9.24 0 14 0 C13.67 0.66 13.34 1.32 13 2 C9.04 1.67 5.08 1.34 1 1 C1 20.14 1 39.28 1 59 C4.3 59 7.6 59 11 59 C11 46.79 11 34.58 11 22 C11.33 22 11.66 22 12 22 C12 34.87 12 47.74 12 61 C8.04 61 4.08 61 0 61 C-1.23792916 58.52414167 -1.12694185 56.8796558 -1.12939453 54.1105957 C-1.13254669 53.09226151 -1.13569885 52.07392731 -1.13894653 51.0247345 C-1.1369223 49.91957993 -1.13489807 48.81442535 -1.1328125 47.67578125 C-1.13376923 46.54101852 -1.13472595 45.4062558 -1.13571167 44.23710632 C-1.13639338 41.83035222 -1.13453974 39.42359629 -1.13037109 37.0168457 C-1.12504737 33.34517229 -1.13030363 29.67362259 -1.13671875 26.00195312 C-1.13605748 23.66406223 -1.13477532 21.32617141 -1.1328125 18.98828125 C-1.13483673 17.89324783 -1.13686096 16.79821442 -1.13894653 15.66999817 C-1.12269516 10.33858871 -0.938756 5.25171986 0 0 Z " fill="#031424" transform="translate(569,534)"/>
<path d="M0 0 C4.28503918 2.03753224 7.35129973 4.02694959 10 8 C11.23123967 12.47408219 11.63359055 16.59090844 9.5 20.8125 C7.05171111 24.43024646 4.09502214 26.53132117 0 28 C-5.52056866 28.90336578 -8.87587246 27.49975853 -13.33203125 24.4140625 C-16.89199936 21.39600991 -16.94678342 18.55877414 -17.375 14.0625 C-17.24485602 9.74334682 -15.84834139 7.2980795 -13 4 C-8.6454902 0.32285839 -5.67842805 -0.88113539 0 0 Z M-14 7 C-15.84343062 10.68686123 -15.3556682 14.96697667 -15 19 C-13.74309144 22.01658054 -12.92583889 23.42554559 -10.16796875 25.13671875 C-6.41712468 26.6302981 -2.86407805 25.84332294 1 25 C4.63726218 23.33951074 7.1578103 21.58742205 9 18 C9.4085132 13.71061143 9.48025674 11.13745017 7.8125 7.1875 C5.18257238 4.01344942 3.02601342 2.34078969 -1.11328125 1.64453125 C-7.17181648 1.267782 -9.84597752 2.63827639 -14 7 Z " fill="#1794C1" transform="translate(274,479)"/>
<path d="M0 0 C0 12.21 0 24.42 0 37 C-0.33 37 -0.66 37 -1 37 C-1 25.45 -1 13.9 -1 2 C-1.66 2 -2.32 2 -3 2 C-3.25007812 2.71285156 -3.50015625 3.42570313 -3.7578125 4.16015625 C-5.12705788 7.2904751 -6.82354664 9.70867997 -8.875 12.4375 C-11.14083065 15.45860753 -13.29703057 18.42002197 -15.1875 21.6875 C-17 24 -17 24 -19.25 24.64453125 C-23.81256671 23.57517968 -25.40680205 19.80286565 -27.8125 16 C-28.31458984 15.236875 -28.81667969 14.47375 -29.33398438 13.6875 C-30.57185736 11.80121736 -31.79265038 9.90590798 -33 8 C-32.67 7.34 -32.34 6.68 -32 6 C-31.45730469 6.74765625 -30.91460938 7.4953125 -30.35546875 8.265625 C-29.64003906 9.25046875 -28.92460938 10.2353125 -28.1875 11.25 C-27.47980469 12.22453125 -26.77210938 13.1990625 -26.04296875 14.203125 C-25.03169922 15.58757813 -25.03169922 15.58757813 -24 17 C-23.46375 17.763125 -22.9275 18.52625 -22.375 19.3125 C-20.71013468 21.3557438 -19.56685126 21.64595155 -17 22 C-16.64421875 20.96746094 -16.64421875 20.96746094 -16.28125 19.9140625 C-14.7491408 16.42944828 -12.70202947 13.45643421 -10.5 10.375 C-9.69780304 9.23705926 -8.89571598 8.09904104 -8.09375 6.9609375 C-7.4028125 5.98382812 -6.711875 5.00671875 -6 4 C-5.34 3.01 -4.68 2.02 -4 1 C-1 0 -1 0 0 0 Z " fill="#26868F" transform="translate(762,557)"/>
<path d="M0 0 C-9.35285463 2.92276707 -19.2888397 3.13230903 -29.02734375 2.91796875 C-39.22987637 2.69758245 -47.41702796 3.09846309 -57 7 C-57.93972656 7.37382813 -58.87945312 7.74765625 -59.84765625 8.1328125 C-60.55792969 8.41898438 -61.26820313 8.70515625 -62 9 C-59.1454079 5.81859713 -56.77687988 4.22190796 -52.75 2.8125 C-51.85796875 2.48894531 -50.9659375 2.16539062 -50.046875 1.83203125 C-43.71677745 0.10342769 -37.22980149 -0.16954253 -30.703125 -0.3515625 C-29.9470697 -0.37471527 -29.1910144 -0.39786804 -28.41204834 -0.42172241 C-26.82895495 -0.46896519 -25.24580173 -0.51424173 -23.66259766 -0.55761719 C-21.24225159 -0.62521641 -18.82236346 -0.70291637 -16.40234375 -0.78125 C-14.85678842 -0.82613077 -13.31121586 -0.87042243 -11.765625 -0.9140625 C-11.0457843 -0.93796051 -10.3259436 -0.96185852 -9.58428955 -0.98648071 C-6.22581138 -1.07046022 -3.20787971 -1.07032737 0 0 Z " fill="#2FACB1" transform="translate(380,541)"/>
<path d="M0 0 C3 3 3 3 3.328125 5.2265625 C3.28945313 6.41378906 3.28945313 6.41378906 3.25 7.625 C3.23453125 8.42164063 3.2190625 9.21828125 3.203125 10.0390625 C3 12 3 12 2 13 C-0.14558827 13.08775605 -2.29404421 13.10695219 -4.44140625 13.09765625 C-5.74658203 13.09443359 -7.05175781 13.09121094 -8.39648438 13.08789062 C-9.7851569 13.07953401 -11.17382877 13.07106905 -12.5625 13.0625 C-13.95507656 13.05748666 -15.34765481 13.05292347 -16.74023438 13.04882812 C-20.1601987 13.03699434 -23.58007844 13.0205088 -27 13 C-27.04898438 13.69867187 -27.09796875 14.39734375 -27.1484375 15.1171875 C-27.26058594 16.48230469 -27.26058594 16.48230469 -27.375 17.875 C-27.47941406 19.23238281 -27.47941406 19.23238281 -27.5859375 20.6171875 C-28 23 -28 23 -30 25 C-30 20.38 -30 15.76 -30 11 C-19.77 11 -9.54 11 1 11 C0.67 7.37 0.34 3.74 0 0 Z " fill="#268086" transform="translate(829,533)"/>
<path d="M0 0 C0.99 0 1.98 0 3 0 C4.15149172 2.72690077 5.29632922 5.45628304 6.4375 8.1875 C6.92573242 9.34088867 6.92573242 9.34088867 7.42382812 10.51757812 C9.00843574 14.32390364 10.41484439 17.88742747 11 22 C7.70262676 19.31655211 6.38905413 15.7640499 4.8125 11.9375 C4.53986328 11.30005859 4.26722656 10.66261719 3.98632812 10.00585938 C2 5.28148496 2 5.28148496 2 3 C1.34 3 0.68 3 0 3 C-0.17015625 3.60585938 -0.3403125 4.21171875 -0.515625 4.8359375 C-2.31852465 11.06936715 -4.51643366 17.0051847 -7 23 C-1.06 23 4.88 23 11 23 C11 23.33 11 23.66 11 24 C4.4 24 -2.2 24 -9 24 C-7.87425625 17.24553749 -7.87425625 17.24553749 -6.40625 13.73046875 C-6.09816406 12.98732422 -5.79007813 12.24417969 -5.47265625 11.47851562 C-5.15167969 10.72248047 -4.83070313 9.96644531 -4.5 9.1875 C-4.01853516 8.02444336 -4.01853516 8.02444336 -3.52734375 6.83789062 C-1.14773261 1.14773261 -1.14773261 1.14773261 0 0 Z " fill="#031D33" transform="translate(671,549)"/>
<path d="M0 0 C4.29 0 8.58 0 13 0 C14.30475618 2.60951236 14.11301572 4.52701285 14.09765625 7.4453125 C14.09443359 8.52167969 14.09121094 9.59804688 14.08789062 10.70703125 C14.07951172 11.83496094 14.07113281 12.96289062 14.0625 14.125 C14.05798828 15.26066406 14.05347656 16.39632812 14.04882812 17.56640625 C14.03701615 20.37765638 14.02054507 23.1888023 14 26 C13.34 26 12.68 26 12 26 C12 18.08 12 10.16 12 2 C8.7 2 5.4 2 2 2 C1.67 12.89 1.34 23.78 1 35 C0.67 35 0.34 35 0 35 C0 23.45 0 11.9 0 0 Z " fill="#020C19" transform="translate(430,534)"/>
<path d="M0 0 C5 5 5 5 5 8 C4.01 7.34 3.02 6.68 2 6 C2.00523682 6.99443115 2.01047363 7.9888623 2.01586914 9.01342773 C2.03392041 12.69033921 2.04543246 16.36724675 2.05493164 20.04418945 C2.05997157 21.63794614 2.0668035 23.23169819 2.07543945 24.82543945 C2.08751999 27.11150253 2.09323155 29.39750467 2.09765625 31.68359375 C2.10281754 32.40026718 2.10797882 33.11694061 2.11329651 33.85533142 C2.11349263 35.57063672 2.06192007 37.28581266 2 39 C1 40 1 40 -2.0625 40.0625 C-3.031875 40.041875 -4.00125 40.02125 -5 40 C-3.68 39.34 -2.36 38.68 -1 38 C-0.67 25.46 -0.34 12.92 0 0 Z " fill="#20707B" transform="translate(723,555)"/>
<path d="M0 0 C0.66 0.33 1.32 0.66 2 1 C0.55099852 3.81740393 -0.91073706 6.62800163 -2.375 9.4375 C-2.7875 10.23994141 -3.2 11.04238281 -3.625 11.86914062 C-4.02460938 12.63291016 -4.42421875 13.39667969 -4.8359375 14.18359375 C-5.20251465 14.89056396 -5.5690918 15.59753418 -5.94677734 16.32592773 C-7 18 -7 18 -9 19 C-7.16508812 14.25981099 -5.08058541 9.63586749 -3 5 C-3.83144531 5.37253906 -4.66289062 5.74507813 -5.51953125 6.12890625 C-6.60621094 6.60199219 -7.69289063 7.07507813 -8.8125 7.5625 C-9.89144531 8.03816406 -10.97039062 8.51382812 -12.08203125 9.00390625 C-15 10 -15 10 -18 9 C-12 6 -6 3 0 0 Z " fill="#2DA1A6" transform="translate(453,456)"/>
<path d="M0 0 C0.33 0 0.66 0 1 0 C1 7.59 1 15.18 1 23 C4.63 23 8.26 23 12 23 C12 17.39 12 11.78 12 6 C12.33 6 12.66 6 13 6 C13.89604368 12.04829486 14.11269443 17.8894576 14 24 C10.71674571 24.84729143 7.67906532 25.05569585 4.30859375 25.03125 C3.50091553 25.02673828 2.6932373 25.02222656 1.86108398 25.01757812 C1.24692627 25.01177734 0.63276855 25.00597656 0 25 C-0.19629336 22.14619655 -0.38226546 19.29232606 -0.5625 16.4375 C-0.61857422 15.63763672 -0.67464844 14.83777344 -0.73242188 14.01367188 C-1.02968013 9.15845373 -0.86778632 4.78889489 0 0 Z " fill="#05141F" transform="translate(430,570)"/>
<path d="M0 0 C0.66 0.33 1.32 0.66 2 1 C-0.64 4.3 -3.28 7.6 -6 11 C-5.04738281 10.43410156 -4.09476562 9.86820312 -3.11328125 9.28515625 C-1.84657274 8.5438972 -0.5796334 7.8030325 0.6875 7.0625 C1.31333984 6.68931641 1.93917969 6.31613281 2.58398438 5.93164062 C6.04444449 3.92058789 8.95510676 2.48724335 13 2 C11.52385799 4.95228402 9.33148671 5.42229099 6.375 6.8125 C2.65442139 8.61520892 -0.80562189 10.40656416 -4.125 12.875 C-7 15 -7 15 -9 15 C-7.58399311 8.86397012 -3.9336625 4.73301638 0 0 Z " fill="#2CABAF" transform="translate(321,478)"/>
<path d="M0 0 C0 3 0 3 -1.19335938 4.53393555 C-1.73798828 5.062854 -2.28261719 5.59177246 -2.84375 6.13671875 C-3.72353516 7.00200195 -3.72353516 7.00200195 -4.62109375 7.88476562 C-5.24113281 8.47966797 -5.86117188 9.07457031 -6.5 9.6875 C-7.12003906 10.29400391 -7.74007813 10.90050781 -8.37890625 11.52539062 C-9.91264707 13.02373743 -11.45548198 14.51276493 -13 16 C-13 11.93645091 -11.47015238 10.94829419 -8.75 8 C-7.96109375 7.13375 -7.1721875 6.2675 -6.359375 5.375 C-4.3351828 3.33740256 -2.34982916 1.63841299 0 0 Z " fill="#3AD3D6" transform="translate(309,451)"/>
<path d="M0 0 C0.66 0 1.32 0 2 0 C0.27021872 4.14533384 -2.56110779 7.30108258 -5.4375 10.6875 C-5.92798828 11.28111328 -6.41847656 11.87472656 -6.92382812 12.48632812 C-10.63464782 16.87821594 -10.63464782 16.87821594 -14 18 C-12.35044362 13.91068059 -9.42596684 11.02035178 -6.4375 7.875 C-2.81366093 4.23596593 -2.81366093 4.23596593 0 0 Z " fill="#03213A" transform="translate(460,539)"/>
<path d="M0 0 C-1.20842856 4.43090471 -2.51668565 6.98112756 -6 10 C-4.125 5.25 -4.125 5.25 -3 3 C-3.60328125 3.22816406 -4.2065625 3.45632813 -4.828125 3.69140625 C-5.62734375 3.97886719 -6.4265625 4.26632812 -7.25 4.5625 C-8.03890625 4.85253906 -8.8278125 5.14257812 -9.640625 5.44140625 C-12.19103452 6.04522837 -13.55322229 5.8473932 -16 5 C-13.89828133 4.1605118 -11.79353375 3.32860344 -9.6875 2.5 C-8.51574219 2.0359375 -7.34398437 1.571875 -6.13671875 1.09375 C-3 0 -3 0 0 0 Z " fill="#2D9FA6" transform="translate(419,508)"/>
<path d="M0 0 C1.98 0.66 3.96 1.32 6 2 C4.88424427 5.34726719 4.48655378 5.62079748 1.5625 7.25 C0.386875 7.8275 -0.78875 8.405 -2 9 C-2.66 8.67 -3.32 8.34 -4 8 C-3.01 7.34 -2.02 6.68 -1 6 C-0.26656572 2.93443402 -0.26656572 2.93443402 0 0 Z " fill="#1BA3D1" transform="translate(304,388)"/>
<path d="M0 0 C2.5 2.3125 2.5 2.3125 5 5 C5 5.99 5 6.98 5 8 C4.01 7.34 3.02 6.68 2 6 C2 8.31 2 10.62 2 13 C1.34 13 0.68 13 0 13 C0 8.71 0 4.42 0 0 Z " fill="#207E88" transform="translate(723,555)"/>
<path d="M0 0 C0 3 0 3 -2 6 C-5.47325181 7.1577506 -8.36067448 7.06866652 -12 7 C-11 5 -11 5 -9.00390625 4.21875 C-8.19824219 3.9815625 -7.39257812 3.744375 -6.5625 3.5 C-2.90617965 2.42683488 -2.90617965 2.42683488 0 0 Z " fill="#19A2D3" transform="translate(279,500)"/>
<path d="M0 0 C3.16115776 1.36983503 3.9927092 1.9890638 6 5 C5.01 4.67 4.02 4.34 3 4 C3.04125 5.258125 3.0825 6.51625 3.125 7.8125 C3.2390374 11.29064073 3.05925681 11.91111478 1 15 C0.83013455 13.43784452 0.66426036 11.8752548 0.5 10.3125 C0.4071875 9.44238281 0.314375 8.57226562 0.21875 7.67578125 C0.00840136 5.10276661 -0.03719144 2.58015636 0 0 Z " fill="#1D91BF" transform="translate(160,479)"/>
<path d="M0 0 C0.33 0.66 0.66 1.32 1 2 C-0.07826365 3.27513763 -1.16285519 4.54492569 -2.25 5.8125 C-2.85328125 6.52019531 -3.4565625 7.22789062 -4.078125 7.95703125 C-5.92370398 9.91889671 -7.79945332 11.45669625 -10 13 C-8.48446596 9.52224821 -6.4226544 7.0442016 -3.875 4.25 C-3.15054687 3.45078125 -2.42609375 2.6515625 -1.6796875 1.828125 C-0.84824219 0.92320312 -0.84824219 0.92320312 0 0 Z " fill="#01477E" transform="translate(461,541)"/>
<path d="M0 0 C0.33 0 0.66 0 1 0 C1 3.63 1 7.26 1 11 C-0.65 11.33 -2.3 11.66 -4 12 C-4.33 11.34 -4.66 10.68 -5 10 C-3.68 10 -2.36 10 -1 10 C-0.67 6.7 -0.34 3.4 0 0 Z " fill="#2B888F" transform="translate(831,583)"/>
<path d="M0 0 C4.95 0 9.9 0 15 0 C15 0.33 15 0.66 15 1 C9.06 1.495 9.06 1.495 3 2 C3 3.32 3 4.64 3 6 C2.34 6 1.68 6 1 6 C0.67 4.02 0.34 2.04 0 0 Z " fill="#29838B" transform="translate(853,544)"/>
<path d="M0 0 C-2.98646769 1.99097846 -5.59687262 2.94124926 -9 4 C-9.99 3.01 -10.98 2.02 -12 1 C-10.56496445 0.63597631 -9.12683494 0.28413409 -7.6875 -0.0625 C-6.88699219 -0.25972656 -6.08648437 -0.45695313 -5.26171875 -0.66015625 C-3 -1 -3 -1 0 0 Z " fill="#30A2B2" transform="translate(262,589)"/>
<path d="M0 0 C0.99 0.33 1.98 0.66 3 1 C1.64978174 5.41889613 -0.26115668 7.34345343 -4 10 C-3.71125 9.46375 -3.4225 8.9275 -3.125 8.375 C-1.83288192 5.64719516 -0.91441408 2.87387282 0 0 Z " fill="#14B2EE" transform="translate(256,552)"/>
<path d="M0 0 C0.66 0.33 1.32 0.66 2 1 C1.34 2.32 0.68 3.64 0 5 C-2.97 4.505 -2.97 4.505 -6 4 C-4.03617993 2.49440461 -2.21736634 1.10868317 0 0 Z " fill="#38B3B8" transform="translate(453,456)"/>
<path d="M0 0 C0.99 0.33 1.98 0.66 3 1 C1.02 3.97 1.02 3.97 -1 7 C-1.33 6.34 -1.66 5.68 -2 5 C-1.67 4.34 -1.34 3.68 -1 3 C-1.66 2.67 -2.32 2.34 -3 2 C-2.01 1.34 -1.02 0.68 0 0 Z " fill="#3BD3D7" transform="translate(414,510)"/>
<path d="M0 0 C4 1 4 1 4 1 Z " fill="#25AED9" transform="translate(228,575)"/>
<path d="M0 0 C0.33 0.66 0.66 1.32 1 2 C0.34 1.67 -0.32 1.34 -1 1 C-0.67 0.67 -0.34 0.34 0 0 Z " fill="#3CA6B2" transform="translate(894,582)"/>
<path d="M0 0 C3 1 3 1 3 1 Z " fill="#28AFD9" transform="translate(236,574)"/>
<path d="M0 0 C0.66 0 1.32 0 2 0 C1.67 0.66 1.34 1.32 1 2 C0.67 1.34 0.34 0.68 0 0 Z " fill="#1D6483" transform="translate(681,536)"/>
<path d="M0 0 C3 1 3 1 3 1 Z " fill="#1C5575" transform="translate(541,532)"/>
<path d="M0 0 C3 1 3 1 3 1 Z " fill="#1CAEE5" transform="translate(243,487)"/>
<path d="M0 0 C0.66 0.66 1.32 1.32 2 2 C1.34 2 0.68 2 0 2 C0 1.34 0 0.68 0 0 Z " fill="#1BB0E7" transform="translate(235,485)"/>
<path d="M0 0 C2 1 2 1 2 1 Z " fill="#12496A" transform="translate(488,593)"/>
<path d="" fill="#0F476B" transform="translate(0,0)"/>
<path d="M0 0 C2 1 2 1 2 1 Z " fill="#39B7BF" transform="translate(864,581)"/>
<path d="M0 0 C2 1 2 1 2 1 Z " fill="#24ADDA" transform="translate(224,575)"/>
<path d="" fill="#3AB6C1" transform="translate(0,0)"/>
<path d="" fill="#094570" transform="translate(0,0)"/>
<path d="" fill="#39B7C2" transform="translate(0,0)"/>
<path d="" fill="#0D4974" transform="translate(0,0)"/>
<path d="" fill="#36B1BC" transform="translate(0,0)"/>
<path d="M0 0 C2 1 2 1 2 1 Z " fill="#3EAEB9" transform="translate(846,532)"/>
<path d="" fill="#185477" transform="translate(0,0)"/>
<path d="" fill="#25AADC" transform="translate(0,0)"/>
<path d="M0 0 C2 1 2 1 2 1 Z " fill="#41CCD1" transform="translate(337,432)"/>
<path d="M0 0 C2 1 2 1 2 1 Z " fill="#42C1C7" transform="translate(464,400)"/>
<path d="M0 0 C2 1 2 1 2 1 Z " fill="#20ACDD" transform="translate(209,400)"/>
<path d="M0 0 C2 1 2 1 2 1 Z " fill="#21AEDF" transform="translate(241,384)"/>
<path d="" fill="#226982" transform="translate(0,0)"/>
<path d="" fill="#164B6D" transform="translate(0,0)"/>
<path d="" fill="#3BA7B1" transform="translate(0,0)"/>
<path d="" fill="#164B70" transform="translate(0,0)"/>
<path d="" fill="#144B6C" transform="translate(0,0)"/>
<path d="" fill="#3DA7AF" transform="translate(0,0)"/>
<path d="" fill="#3997A7" transform="translate(0,0)"/>
<path d="" fill="#43B5BE" transform="translate(0,0)"/>
<path d="" fill="#3CACAF" transform="translate(0,0)"/>
<path d="" fill="#44B7C1" transform="translate(0,0)"/>
<path d="" fill="#41AFBD" transform="translate(0,0)"/>
<path d="" fill="#3CA8B2" transform="translate(0,0)"/>
<path d="" fill="#0F4A6B" transform="translate(0,0)"/>
<path d="" fill="#14476C" transform="translate(0,0)"/>
<path d="" fill="#3CC2C9" transform="translate(0,0)"/>
<path d="" fill="#0E496F" transform="translate(0,0)"/>
<path d="" fill="#3AA6B2" transform="translate(0,0)"/>
<path d="" fill="#3EA6B1" transform="translate(0,0)"/>
<path d="" fill="#3CBDC5" transform="translate(0,0)"/>
<path d="" fill="#3EC2CA" transform="translate(0,0)"/>
<path d="" fill="#0A4870" transform="translate(0,0)"/>
<path d="" fill="#0C4974" transform="translate(0,0)"/>
<path d="" fill="#3BBDC6" transform="translate(0,0)"/>
<path d="" fill="#40C5CE" transform="translate(0,0)"/>
<path d="" fill="#3BB7C0" transform="translate(0,0)"/>
<path d="" fill="#3BB8BD" transform="translate(0,0)"/>
<path d="" fill="#37AFBA" transform="translate(0,0)"/>
<path d="" fill="#29ABD8" transform="translate(0,0)"/>
<path d="" fill="#1E5879" transform="translate(0,0)"/>
<path d="" fill="#36B0BB" transform="translate(0,0)"/>
<path d="" fill="#38B5BF" transform="translate(0,0)"/>
<path d="" fill="#3EBEC7" transform="translate(0,0)"/>
<path d="" fill="#176089" transform="translate(0,0)"/>
<path d="" fill="#2EA5D1" transform="translate(0,0)"/>
<path d="" fill="#3AB5BE" transform="translate(0,0)"/>
<path d="" fill="#28A8D2" transform="translate(0,0)"/>
<path d="" fill="#3FC7CA" transform="translate(0,0)"/>
<path d="" fill="#0B4B72" transform="translate(0,0)"/>
<path d="" fill="#186588" transform="translate(0,0)"/>
<path d="" fill="#0A4D74" transform="translate(0,0)"/>
<path d="" fill="#3FB5BF" transform="translate(0,0)"/>
<path d="" fill="#3AB4C0" transform="translate(0,0)"/>
<path d="" fill="#3FC0C7" transform="translate(0,0)"/>
<path d="" fill="#3AC0C8" transform="translate(0,0)"/>
<path d="" fill="#3BC0C9" transform="translate(0,0)"/>
<path d="" fill="#44C9CB" transform="translate(0,0)"/>
<path d="" fill="#3BBAC2" transform="translate(0,0)"/>
<path d="" fill="#3DB7C0" transform="translate(0,0)"/>
<path d="" fill="#3FBCC4" transform="translate(0,0)"/>
<path d="" fill="#3CB4BE" transform="translate(0,0)"/>
<path d="" fill="#3BB4BF" transform="translate(0,0)"/>
<path d="" fill="#37B6C2" transform="translate(0,0)"/>
<path d="" fill="#3FC8CE" transform="translate(0,0)"/>
<path d="" fill="#3ABAC3" transform="translate(0,0)"/>
<path d="" fill="#195F83" transform="translate(0,0)"/>
<path d="" fill="#3DADB9" transform="translate(0,0)"/>
<path d="" fill="#39B3BD" transform="translate(0,0)"/>
<path d="" fill="#42ABB5" transform="translate(0,0)"/>
<path d="" fill="#37B1BA" transform="translate(0,0)"/>
<path d="" fill="#39B7BE" transform="translate(0,0)"/>
<path d="" fill="#41C2C5" transform="translate(0,0)"/>
<path d="" fill="#0D4B73" transform="translate(0,0)"/>
<path d="" fill="#26A6D7" transform="translate(0,0)"/>
<path d="" fill="#11527A" transform="translate(0,0)"/>
<path d="" fill="#24A7D4" transform="translate(0,0)"/>
<path d="" fill="#3AAFB8" transform="translate(0,0)"/>
<path d="" fill="#42B4BA" transform="translate(0,0)"/>
<path d="" fill="#3CADB5" transform="translate(0,0)"/>
<path d="" fill="#216280" transform="translate(0,0)"/>
<path d="" fill="#3CB7BD" transform="translate(0,0)"/>
<path d="" fill="#1A5879" transform="translate(0,0)"/>
<path d="" fill="#307690" transform="translate(0,0)"/>
<path d="" fill="#3EB2BD" transform="translate(0,0)"/>
<path d="" fill="#3EB3BB" transform="translate(0,0)"/>
<path d="" fill="#3AA6B5" transform="translate(0,0)"/>
<path d="" fill="#1F6182" transform="translate(0,0)"/>
<path d="" fill="#175377" transform="translate(0,0)"/>
<path d="" fill="#1E5C7D" transform="translate(0,0)"/>
<path d="" fill="#1D5F80" transform="translate(0,0)"/>
<path d="" fill="#3FB1BA" transform="translate(0,0)"/>
<path d="" fill="#40AEB7" transform="translate(0,0)"/>
<path d="" fill="#3AA2AE" transform="translate(0,0)"/>
<path d="" fill="#226582" transform="translate(0,0)"/>
<path d="" fill="#17577A" transform="translate(0,0)"/>
<path d="" fill="#1D5F80" transform="translate(0,0)"/>
<path d="" fill="#1B5979" transform="translate(0,0)"/>
<path d="" fill="#3CAFB8" transform="translate(0,0)"/>
<path d="" fill="#3DA7B0" transform="translate(0,0)"/>
<path d="" fill="#1C5778" transform="translate(0,0)"/>
<path d="" fill="#1C597A" transform="translate(0,0)"/>
<path d="" fill="#3DC7D0" transform="translate(0,0)"/>
<path d="" fill="#2CB1DC" transform="translate(0,0)"/>
<path d="" fill="#3ECCCE" transform="translate(0,0)"/>
<path d="" fill="#24B2DE" transform="translate(0,0)"/>
<path d="" fill="#26B2E0" transform="translate(0,0)"/>
<path d="" fill="#20B1E0" transform="translate(0,0)"/>
<path d="" fill="#25B4DF" transform="translate(0,0)"/>
<path d="" fill="#44BEC4" transform="translate(0,0)"/>
<path d="" fill="#25A7D6" transform="translate(0,0)"/>
<path d="" fill="#29A4D5" transform="translate(0,0)"/>
<path d="" fill="#25AAE0" transform="translate(0,0)"/>
<path d="" fill="#35BDDA" transform="translate(0,0)"/>
<path d="" fill="#24B3E3" transform="translate(0,0)"/>
<path d="" fill="#3CC4D1" transform="translate(0,0)"/>
<path d="" fill="#42D2D3" transform="translate(0,0)"/>
<path d="" fill="#41CFD3" transform="translate(0,0)"/>
<path d="" fill="#37BFDF" transform="translate(0,0)"/>
<path d="" fill="#3DCFD2" transform="translate(0,0)"/>
<path d="" fill="#3ECED2" transform="translate(0,0)"/>
<path d="" fill="#43BDC0" transform="translate(0,0)"/>
<path d="" fill="#21ABE1" transform="translate(0,0)"/>
<path d="" fill="#42BDC0" transform="translate(0,0)"/>
<path d="" fill="#41CFD3" transform="translate(0,0)"/>
<path d="" fill="#22ABDF" transform="translate(0,0)"/>
<path d="" fill="#25B4E3" transform="translate(0,0)"/>
<path d="" fill="#41CDD0" transform="translate(0,0)"/>
<path d="" fill="#3ECACF" transform="translate(0,0)"/>
<path d="" fill="#40CBCF" transform="translate(0,0)"/>
<path d="" fill="#42CED0" transform="translate(0,0)"/>
<path d="" fill="#23B4E4" transform="translate(0,0)"/>
<path d="" fill="#43C2C4" transform="translate(0,0)"/>
<path d="" fill="#3DC8D1" transform="translate(0,0)"/>
<path d="" fill="#41CAD1" transform="translate(0,0)"/>
<path d="" fill="#22B3E4" transform="translate(0,0)"/>
<path d="" fill="#42CDD1" transform="translate(0,0)"/>
<path d="" fill="#48C3C8" transform="translate(0,0)"/>
<path d="" fill="#49BBC1" transform="translate(0,0)"/>
<path d="" fill="#2FACD6" transform="translate(0,0)"/>
</svg>
